<mxfile host="app.diagrams.net" modified="2024-02-25T00:04:38.431Z" agent="Mozilla/5.0 (Windows NT 10.0; Win64; x64) AppleWebKit/537.36 (KHTML, like Gecko) Chrome/121.0.0.0 Safari/537.36" version="23.1.5" etag="pDrtwFEE9Xbq-XFuxt0P" type="github">
  <diagram name="第 1 页" id="5kPvABFZM2XCfgbRumEY">
    <mxGraphModel>
      <root>
        <mxCell id="0" />
        <mxCell id="1" parent="0" />
      </root>
    </mxGraphModel>
  </diagram>
</mxfile>
